<?xml version="1.0" encoding="UTF-8" standalone="no"?>
<svg
   xmlns:dc="http://purl.org/dc/elements/1.1/"
   xmlns:cc="http://creativecommons.org/ns#"
   xmlns:rdf="http://www.w3.org/1999/02/22-rdf-syntax-ns#"
   xmlns:svg="http://www.w3.org/2000/svg"
   xmlns="http://www.w3.org/2000/svg"
   xmlns:sodipodi="http://sodipodi.sourceforge.net/DTD/sodipodi-0.dtd"
   xmlns:inkscape="http://www.inkscape.org/namespaces/inkscape"
   width="299.5596"
   height="127.91469"
   viewBox="0 0 111.83558 47.845952"
   version="1.1"
   id="svg142"
   sodipodi:docname="pgdx.svg"
   style="fill:none"
   inkscape:version="0.92.4 (5da689c313, 2019-01-14)">
  <metadata
     id="metadata148">
    <rdf:RDF>
      <cc:Work
         rdf:about="">
        <dc:format>image/svg+xml</dc:format>
        <dc:type
           rdf:resource="http://purl.org/dc/dcmitype/StillImage" />
        <dc:title></dc:title>
      </cc:Work>
    </rdf:RDF>
  </metadata>
  <defs
     id="defs146" />
  <sodipodi:namedview
     pagecolor="#ffffff"
     bordercolor="#666666"
     borderopacity="1"
     objecttolerance="10"
     gridtolerance="10"
     guidetolerance="10"
     inkscape:pageopacity="0"
     inkscape:pageshadow="2"
     inkscape:window-width="713"
     inkscape:window-height="513"
     id="namedview144"
     showgrid="false"
     fit-margin-top="0"
     fit-margin-left="0"
     fit-margin-right="0"
     fit-margin-bottom="0"
     inkscape:zoom="1.7766667"
     inkscape:cx="149.7147"
     inkscape:cy="64.496806"
     inkscape:window-x="0"
     inkscape:window-y="0"
     inkscape:window-maximized="0"
     inkscape:current-layer="svg142" />
  <path
     d="m 3.4320746,41.662991 c 0.34828,0.3243 0.55295,0.7721 0.56927,1.2456 0.01633,0.4735 -0.15703,0.9341 -0.48216,1.2812 l -0.08711,0.0864 c -0.44794,0.3395 -1.00567,0.5047 -1.56796,0.4644 H 0.45949055 v 1.6413 h -0.566206 v -5.1832 H 1.8532346 c 0.56616,-0.0451 1.12898,0.1204 1.57884,0.4643 z m -0.39199,2.2461 c 0.13959,-0.1173 0.24967,-0.2652 0.3215,-0.432 0.07183,-0.1668 0.10342,-0.348 0.09227,-0.5291 0.01034,-0.1825 -0.02156,-0.365 -0.09328,-0.5335 -0.07171,-0.1684 -0.18134,-0.3184 -0.32049,-0.4383 -0.34537,-0.2429 -0.76427,-0.3611 -1.18685,-0.3348 H 0.45949055 v 2.6348 H 1.8532346 c 0.42018,0.0344 0.83944,-0.0762 1.18685,-0.3131 z"
     id="path2"
     inkscape:connector-curvature="0"
     style="fill:#09567e" />
  <path
     d="m 8.4085446,44.589391 h -3.26657 c 0.0064,0.1868 0.05124,0.3703 0.13175,0.5392 0.08052,0.169 0.19501,0.3199 0.33646,0.4434 0.30188,0.2577 0.69082,0.3927 1.08885,0.378 0.2313,-3e-4 0.46042,-0.0442 0.6751,-0.1296 0.20573,-0.087 0.38834,-0.2201 0.53354,-0.3888 l 0.29399,0.3456 c -0.17428,0.2054 -0.39417,0.3681 -0.64243,0.4751 -0.3128,0.1238 -0.64886,0.1792 -0.98522,0.1624 -0.33637,-0.0167 -0.66513,-0.1053 -0.96383,-0.2596 -0.30736,-0.1579 -0.56107,-0.402 -0.72954,-0.7019 -0.19295,-0.3263 -0.2839,-0.7021 -0.26133,-1.0798 -0.01598,-0.3745 0.06657,-0.7466 0.23955,-1.0798 0.16522,-0.2913 0.40578,-0.5336 0.69687,-0.7019 0.29279,-0.1722 0.62886,-0.2583 0.96909,-0.2484 0.34383,-0.0114 0.6838,0.0748 0.97997,0.2484 0.28725,0.1661 0.52128,0.4095 0.67509,0.7019 0.18393,0.3295 0.27071,0.7037 0.25044,1.0798 z m -2.85281,-1.339 c -0.25952,0.2474 -0.4151,0.583 -0.43554,0.9394 h 2.78748 c -0.02044,-0.3564 -0.17603,-0.692 -0.43555,-0.9394 -0.26562,-0.2294 -0.60596,-0.3558 -0.95819,-0.3558 -0.35223,0 -0.69257,0.1264 -0.9582,0.3558 z"
     id="path4"
     inkscape:connector-curvature="0"
     style="fill:#09567e" />
  <path
     d="m 10.563885,42.645291 c 0.2829,-0.1429 0.5973,-0.2134 0.9146,-0.2052 v 0.5183 h -0.1197 c -0.1812,-0.0112 -0.3627,0.0168 -0.532,0.0821 -0.1692,0.0652 -0.3221,0.1662 -0.448,0.2959 -0.2551,0.3003 -0.3803004,0.6884 -0.3484,1.0798 v 2.0193 H 9.4968046 v -3.963 h 0.5117804 v 0.7235 c 0.1232,-0.2361 0.3172,-0.4285 0.5553,-0.5507 z"
     id="path6"
     inkscape:connector-curvature="0"
     style="fill:#09567e" />
  <path
     d="m 12.611485,46.273891 c -0.2513,-0.0644 -0.4853,-0.1823 -0.686,-0.3455 l 0.2396,-0.4104 c 0.1852,0.1422 0.3957,0.2484 0.6206,0.3132 0.2486,0.0858 0.5099,0.1296 0.7731,0.1296 0.2762,0.0189 0.552,-0.0411 0.7949,-0.1728 0.0834,-0.0449 0.1523,-0.1124 0.1986,-0.1946 0.0462,-0.0822 0.068,-0.1757 0.0627,-0.2697 -5e-4,-0.0607 -0.0134,-0.1206 -0.0377,-0.1762 -0.0243,-0.0557 -0.0596,-0.1059 -0.1038,-0.1478 -0.1051,-0.0861 -0.2277,-0.1487 -0.3594,-0.1836 -0.1885,-0.0561 -0.3816,-0.0958 -0.5771,-0.1187 -0.2613,0 -0.5117,-0.108 -0.7731,-0.1836 -0.189,-0.0637 -0.3579,-0.1754 -0.4899,-0.324 -0.1487,-0.174 -0.2229,-0.3987 -0.2069,-0.6263 -10e-5,-0.1562 0.0374,-0.3102 0.1094,-0.4491 0.072,-0.139 0.1763,-0.259 0.3043,-0.35 0.3201,-0.2167 0.7016,-0.3265 1.0889,-0.3131 0.2572,4e-4 0.5133,0.033 0.7622,0.0972 0.2196,0.0525 0.4293,0.1401 0.6207,0.2591 l -0.2287,0.4212 c -0.3421,-0.2218 -0.7459,-0.3314 -1.1542,-0.3132 -0.2692,-0.0191 -0.5381,0.041 -0.7731,0.1728 -0.0798,0.0482 -0.145,0.1166 -0.1891,0.1983 -0.044,0.0816 -0.0652,0.1735 -0.0613,0.266 -0.0056,0.0662 0.0042,0.1328 0.0287,0.1946 0.0246,0.0618 0.0632,0.1172 0.1128,0.1618 0.1003,0.0952 0.2243,0.1623 0.3594,0.1943 0.1972,0.0535 0.3971,0.0968 0.5988,0.1296 0.2613,0 0.5118,0.108 0.7622,0.1836 0.1839,0.057 0.3492,0.1613 0.4791,0.3024 0.0838,0.0833 0.1493,0.1829 0.1924,0.2925 0.0431,0.1097 0.0629,0.227 0.0581,0.3446 0,0.1562 -0.0375,0.3102 -0.1095,0.4491 -0.0719,0.139 -0.1763,0.259 -0.3043,0.3499 -0.3597,0.2176 -0.777,0.323 -1.1978,0.3024 -0.3127,-0.0125 -0.6215,-0.0745 -0.9146,-0.1836 z"
     id="path8"
     inkscape:connector-curvature="0"
     style="fill:#09567e" />
  <path
     d="m 16.704985,46.154991 c -0.3005,-0.1682 -0.549,-0.4147 -0.7187,-0.7127 -0.1728,-0.3108 -0.2628,-0.6602 -0.2613,-1.0151 -0.0093,-0.3763 0.0808,-0.7486 0.2613,-1.0798 0.1733,-0.2925 0.4212,-0.5345 0.7187,-0.7019 0.3151,-0.1664 0.6665,-0.2534 1.0235,-0.2534 0.357,0 0.7085,0.087 1.0235,0.2534 0.3023,0.1611 0.5516,0.4047 0.7187,0.7019 0.1805,0.3312 0.2706,0.7035 0.2613,1.0798 0.0015,0.3549 -0.0885,0.7043 -0.2613,1.0151 -0.1634,0.3027 -0.4134,0.5507 -0.7187,0.7127 -0.315,0.1664 -0.6665,0.2534 -1.0235,0.2534 -0.357,0 -0.7084,-0.087 -1.0235,-0.2534 z m 1.7748,-0.3996 c 0.2232,-0.126 0.4048,-0.3136 0.5227,-0.5399 0.1312,-0.2417 0.1951,-0.5139 0.1851,-0.7883 0.0099,-0.2778 -0.0539,-0.5534 -0.1851,-0.799 -0.1153,-0.2254 -0.2978,-0.4102 -0.5227,-0.5292 -0.2266,-0.1346 -0.4873,-0.202 -0.7513,-0.1943 -0.2632,-0.0011 -0.5222,0.0659 -0.7513,0.1943 -0.2232,0.1261 -0.4047,0.3137 -0.5227,0.54 -0.1221,0.247 -0.1855,0.5185 -0.1855,0.7936 0,0.2752 0.0634,0.5467 0.1855,0.7937 0.1209,0.2242 0.3017,0.4111 0.5227,0.5399 0.2291,0.1285 0.4881,0.1955 0.7513,0.1944 0.2643,-0.0017 0.5234,-0.0724 0.7513,-0.2052 z"
     id="path10"
     inkscape:connector-curvature="0"
     style="fill:#09567e" />
  <path
     d="m 24.000585,42.872391 c 0.1529,0.1675 0.2702,0.3637 0.345,0.577 0.0749,0.2134 0.1057,0.4394 0.0906,0.6648 v 2.2569 h -0.5335 v -2.1597 c 0.0184,-0.3401 -0.099,-0.6737 -0.3267,-0.9286 -0.1121,-0.1145 -0.2483,-0.2029 -0.3989,-0.2589 -0.1506,-0.056 -0.3119,-0.0783 -0.4722,-0.0651 -0.1844,-0.0101 -0.3688,0.0183 -0.5414,0.0834 -0.1725,0.0651 -0.3294,0.1655 -0.4603,0.2945 -0.1351,0.1439 -0.2379,0.3146 -0.3017,0.5007 -0.0638,0.1861 -0.0872,0.3835 -0.0686,0.5792 v 2.0409 h -0.5226 v -3.8874 h 0.5118 v 0.6263 c 0.1402,-0.2384 0.3486,-0.4301 0.5988,-0.5508 0.2775,-0.1362 0.5832,-0.2065 0.8929,-0.2051 0.2168,-0.0093 0.4333,0.0242 0.637,0.0983 0.2037,0.0741 0.3905,0.1875 0.5498,0.3336 z"
     id="path12"
     inkscape:connector-curvature="0"
     style="fill:#09567e" />
  <path
     d="m 28.431785,42.829091 c 0.1459,0.1491 0.2583,0.3274 0.3296,0.5228 0.0714,0.1955 0.1,0.4037 0.0842,0.611 v 2.4728 h -0.5118 v -0.6155 c -0.1239,0.2054 -0.3056,0.3705 -0.5227,0.4751 -0.26,0.116 -0.5423,0.1749 -0.8275,0.1728 -0.3905,0.0258 -0.7772,-0.0893 -1.0888,-0.3239 -0.1159,-0.1014 -0.2087,-0.226 -0.2723,-0.3656 -0.0635,-0.1397 -0.0964,-0.2911 -0.0964,-0.4443 0,-0.1532 0.0329,-0.3047 0.0964,-0.4443 0.0636,-0.1396 0.1564,-0.2643 0.2723,-0.3656 0.3457,-0.2688 0.782,-0.3963 1.2195,-0.3563 h 1.1977 v -0.2376 c 0.0133,-0.1406 -0.0053,-0.2824 -0.0543,-0.415 -0.0489,-0.1327 -0.1271,-0.2528 -0.2288,-0.3517 -0.2297,-0.1937 -0.5267,-0.2906 -0.8275,-0.27 -0.2445,9e-4 -0.4871,0.041 -0.7187,0.1188 -0.2166,0.0766 -0.4162,0.1939 -0.5879,0.3456 l -0.2396,-0.3996 c 0.2094,-0.1723 0.4494,-0.3041 0.7078,-0.3887 0.2892,-0.0895 0.5899,-0.1368 0.8928,-0.1404 0.4293,-0.0223 0.8507,0.1209 1.176,0.3996 z m -0.5989,2.9587 c 0.2187,-0.1383 0.3867,-0.3428 0.4791,-0.5831 v -0.6479 h -1.1977 c -0.6751,0 -1.0127,0.2376 -1.0127,0.6911 -0.0064,0.1046 0.0143,0.2091 0.06,0.3036 0.0458,0.0945 0.1151,0.1758 0.2014,0.2363 0.2143,0.1441 0.4712,0.2126 0.7295,0.1944 0.261,0.0114 0.5193,-0.0564 0.7404,-0.1944 z"
     id="path14"
     inkscape:connector-curvature="0"
     style="fill:#09567e" />
  <path
     d="m 30.294685,40.874491 h 0.5226 v 5.4964 h -0.5226 z"
     id="path16"
     inkscape:connector-curvature="0"
     style="fill:#09567e" />
  <path
     d="m 38.058185,43.779391 h 0.5335 v 1.9761 c -0.2534,0.2225 -0.5497,0.3915 -0.8711,0.4967 -0.3505,0.1171 -0.7191,0.1719 -1.0888,0.162 -0.4928,0.0088 -0.9798,-0.1064 -1.4156,-0.3347 -0.4037,-0.2241 -0.7386,-0.5525 -0.969,-0.9503 -0.2358,-0.4114 -0.3598,-0.8766 -0.3598,-1.3498 0,-0.4732 0.124,-0.9384 0.3598,-1.3498 0.2304,-0.3978 0.5653,-0.7262 0.969,-0.9503 0.4408,-0.2266 0.93,-0.3451 1.4264,-0.3455 0.3717,10e-4 0.7403,0.0668 1.0889,0.1944 0.3229,0.1199 0.6135,0.3121 0.8493,0.5615 l -0.3484,0.3455 c -0.2092,-0.2002 -0.4566,-0.3568 -0.7278,-0.4607 -0.2711,-0.1038 -0.5605,-0.1528 -0.8511,-0.144 -0.3798,-2e-4 -0.7538,0.0925 -1.0888,0.27 -0.3358,0.1804 -0.6147,0.4495 -0.8058,0.7775 -0.1849,0.3303 -0.282,0.702 -0.282,1.0798 0,0.3779 0.0971,0.7495 0.282,1.0798 0.1901,0.3222 0.4649,0.5872 0.7949,0.7667 0.3922,0.2034 0.8318,0.2995 1.2739,0.2787 0.442,-0.0209 0.8704,-0.1581 1.2414,-0.3974 z"
     id="path18"
     inkscape:connector-curvature="0"
     style="fill:#09567e" />
  <path
     d="m 43.447985,44.589391 h -3.2666 c 0.0084,0.1875 0.0552,0.3713 0.1376,0.5402 0.0824,0.169 0.1985,0.3195 0.3415,0.4425 0.3024,0.2567 0.691,0.3916 1.0888,0.3779 0.2328,0.0035 0.4634,-0.0445 0.6751,-0.1404 0.2088,-0.0763 0.3931,-0.2068 0.5336,-0.3779 l 0.3049,0.3455 c -0.1805,0.2035 -0.4034,0.3656 -0.6534,0.4752 -0.3128,0.1237 -0.6488,0.1791 -0.9852,0.1624 -0.3363,-0.0168 -0.6651,-0.1053 -0.9638,-0.2596 -0.3059,-0.1648 -0.5588,-0.4119 -0.7295,-0.7127 -0.1792,-0.3083 -0.2696,-0.6594 -0.2614,-1.0151 -0.0202,-0.3761 0.0665,-0.7503 0.2505,-1.0798 0.1609,-0.2908 0.3979,-0.5333 0.6859,-0.7019 0.2963,-0.1697 0.6324,-0.259 0.9746,-0.259 0.3421,0 0.6782,0.0893 0.9745,0.259 0.2905,0.1655 0.5282,0.4087 0.686,0.7019 0.173,0.3332 0.2555,0.7054 0.2395,1.0798 z m -2.8528,-1.339 c -0.2553,0.2504 -0.41,0.5843 -0.4356,0.9395 h 2.7875 c -0.016,-0.3576 -0.1723,-0.6947 -0.4356,-0.9395 -0.2656,-0.2294 -0.6059,-0.3558 -0.9582,-0.3558 -0.3522,0 -0.6925,0.1264 -0.9581,0.3558 z"
     id="path20"
     inkscape:connector-curvature="0"
     style="fill:#09567e" />
  <path
     d="m 47.738085,42.872091 c 0.155,0.1661 0.2737,0.3621 0.3486,0.5758 0.075,0.2137 0.1046,0.4404 0.0869,0.666 v 2.2569 h -0.5335 v -2.1597 c 0.0158,-0.1672 -0.0032,-0.3359 -0.0556,-0.4956 -0.0524,-0.1597 -0.1373,-0.3071 -0.2493,-0.433 -0.1149,-0.1105 -0.2516,-0.1963 -0.4015,-0.252 -0.1499,-0.0557 -0.3097,-0.0802 -0.4696,-0.072 -0.1843,-0.0101 -0.3688,0.0183 -0.5413,0.0834 -0.1726,0.0651 -0.3295,0.1655 -0.4604,0.2945 -0.1375,0.1423 -0.2418,0.3127 -0.3058,0.4993 -0.0639,0.1865 -0.0859,0.3847 -0.0644,0.5806 v 2.0409 h -0.5553 v -3.8874 h 0.5008 v 0.6263 c 0.1471,-0.2368 0.3584,-0.4277 0.6098,-0.5508 0.2766,-0.1386 0.5829,-0.2089 0.8929,-0.2051 0.2187,-0.0126 0.4378,0.0193 0.6437,0.0935 0.2059,0.0743 0.3945,0.1894 0.554,0.3384 z"
     id="path22"
     inkscape:connector-curvature="0"
     style="fill:#09567e" />
  <path
     d="m 50.220385,46.154991 c -0.3053,-0.162 -0.5553,-0.41 -0.7186,-0.7127 -0.1841,-0.3062 -0.2749,-0.6588 -0.2614,-1.0151 -0.0225,-0.3776 0.0684,-0.7534 0.2614,-1.0798 0.167,-0.2972 0.4164,-0.5408 0.7186,-0.7019 0.3151,-0.1664 0.6666,-0.2534 1.0235,-0.2534 0.357,0 0.7085,0.087 1.0236,0.2534 0.2975,0.1674 0.5453,0.4094 0.7186,0.7019 0.1839,0.3295 0.2707,0.7037 0.2504,1.0798 0.0105,0.3546 -0.0761,0.7053 -0.2504,1.0151 -0.1696,0.298 -0.4181,0.5445 -0.7186,0.7127 -0.3151,0.1664 -0.6666,0.2534 -1.0236,0.2534 -0.3569,0 -0.7084,-0.087 -1.0235,-0.2534 z m 1.7748,-0.3996 c 0.221,-0.1288 0.4019,-0.3157 0.5227,-0.5399 0.1221,-0.247 0.1856,-0.5185 0.1856,-0.7937 0,-0.2751 -0.0635,-0.5466 -0.1856,-0.7936 -0.1181,-0.2235 -0.2999,-0.4075 -0.5227,-0.5292 -0.2291,-0.1284 -0.4881,-0.1954 -0.7513,-0.1943 -0.264,-0.0077 -0.5247,0.0597 -0.7513,0.1943 -0.2248,0.119 -0.4073,0.3038 -0.5226,0.5292 -0.1297,0.2466 -0.1969,0.5209 -0.196,0.799 -9e-4,0.2748 0.0664,0.5455 0.196,0.7883 0.1179,0.2263 0.2994,0.4139 0.5226,0.5399 0.2288,0.1295 0.488,0.1965 0.7513,0.1944 0.2632,0.0011 0.5222,-0.0659 0.7513,-0.1944 z"
     id="path24"
     inkscape:connector-curvature="0"
     style="fill:#09567e" />
  <path
     d="m 60.390685,42.861691 c 0.1605,0.1663 0.2855,0.3628 0.3678,0.578 0.0823,0.2152 0.1202,0.4446 0.1113,0.6746 v 2.2568 h -0.5335 v -2.1596 c 0.0198,-0.3348 -0.0848,-0.6652 -0.294,-0.9287 -0.1084,-0.1101 -0.2393,-0.196 -0.3839,-0.2519 -0.1446,-0.0558 -0.2996,-0.0804 -0.4545,-0.072 -0.1795,-0.0097 -0.3589,0.0191 -0.5261,0.0843 -0.1672,0.0652 -0.3183,0.1653 -0.443,0.2936 -0.129,0.1471 -0.2263,0.3187 -0.2862,0.5044 -0.0599,0.1856 -0.0811,0.3814 -0.0623,0.5754 v 2.0409 h -0.5335 v -2.1596 c 0.0202,-0.3316 -0.0846,-0.6587 -0.294,-0.9179 -0.1096,-0.1116 -0.2423,-0.1983 -0.3889,-0.2542 -0.1466,-0.0559 -0.3037,-0.0797 -0.4604,-0.0698 -0.179,-0.0147 -0.359,0.0106 -0.5267,0.0742 -0.1678,0.0635 -0.3189,0.1637 -0.4424,0.293 -0.1293,0.1473 -0.2276,0.3186 -0.2893,0.504 -0.0617,0.1854 -0.0855,0.3812 -0.07,0.5758 v 2.0517 h -0.5444 v -3.8874 h 0.5117 v 0.5291 c 0.1393,-0.2352 0.3433,-0.4262 0.588,-0.5507 0.2676,-0.1303 0.5621,-0.1968 0.8602,-0.1944 0.2974,-0.004 0.5905,0.0706 0.8493,0.216 0.2459,0.1389 0.4376,0.3557 0.5444,0.6155 0.1555,-0.259 0.3821,-0.4687 0.6534,-0.6047 0.2874,-0.1423 0.6043,-0.2162 0.9255,-0.216 0.4114,-0.0127 0.8123,0.1301 1.1215,0.3996 z"
     id="path26"
     inkscape:connector-curvature="0"
     style="fill:#09567e" />
  <path
     d="m 65.693085,44.588891 h -3.2666 c 0.0064,0.1868 0.0513,0.3703 0.1318,0.5393 0.0805,0.169 0.195,0.3199 0.3364,0.4434 0.3019,0.2577 0.6909,0.3927 1.0889,0.3779 0.2315,0.002 0.461,-0.042 0.6751,-0.1296 0.2057,-0.0869 0.3883,-0.22 0.5335,-0.3887 l 0.294,0.3456 c -0.1759,0.2083 -0.4001,0.3713 -0.6533,0.4751 -0.313,0.1231 -0.6489,0.1781 -0.9852,0.1613 -0.3362,-0.0167 -0.6649,-0.1049 -0.9639,-0.2585 -0.3031,-0.1637 -0.5553,-0.4064 -0.7295,-0.7019 -0.1805,-0.3312 -0.2706,-0.7035 -0.2613,-1.0798 -0.0088,-0.3751 0.0773,-0.7463 0.2504,-1.0799 0.1621,-0.2935 0.4034,-0.5366 0.6969,-0.7019 0.298,-0.1645 0.6334,-0.2509 0.9745,-0.2509 0.3411,0 0.6765,0.0864 0.9745,0.2509 0.2873,0.1662 0.5213,0.4095 0.6751,0.7019 0.1768,0.3322 0.2631,0.7044 0.2505,1.0799 z m -2.8528,-1.339 c -0.2595,0.2475 -0.4151,0.5831 -0.4356,0.9395 h 2.8202 c -0.0204,-0.3564 -0.176,-0.692 -0.4356,-0.9395 -0.2656,-0.2294 -0.6059,-0.3557 -0.9582,-0.3557 -0.3522,0 -0.6925,0.1263 -0.9581,0.3557 z"
     id="path28"
     inkscape:connector-curvature="0"
     style="fill:#09567e" />
  <path
     d="m 68.862085,41.187491 h 2.1777 c 0.5042,-0.0087 1.0036,0.0985 1.459,0.3132 0.4034,0.2187 0.7414,0.539 0.98,0.9286 0.2307,0.4112 0.3518,0.8739 0.3518,1.3444 0,0.4706 -0.1211,0.9333 -0.3518,1.3444 -0.2359,0.3891 -0.5749,0.7065 -0.98,0.9179 -0.4526,0.2239 -0.9534,0.3351 -1.459,0.3239 h -2.1777 z m 2.1014,4.7081 c 0.4156,0.0087 0.8269,-0.084 1.1978,-0.2699 0.3346,-0.1723 0.6138,-0.4342 0.8057,-0.7559 0.1802,-0.3319 0.2745,-0.703 0.2745,-1.0799 0,-0.3769 -0.0943,-0.7479 -0.2745,-1.0798 -0.1953,-0.3164 -0.4738,-0.574 -0.8057,-0.7451 -0.3709,-0.1859 -0.7822,-0.2786 -1.1978,-0.27 h -1.5461 v 4.2006 z"
     id="path30"
     inkscape:connector-curvature="0"
     style="fill:#09567e" />
  <path
     d="m 74.915485,41.511591 c -0.0352,-0.0356 -0.063,-0.0778 -0.0817,-0.1241 -0.0186,-0.0464 -0.0279,-0.0959 -0.0272,-0.1458 -0.0018,-0.0485 0.0069,-0.0967 0.0257,-0.1415 0.0188,-0.0447 0.0472,-0.0849 0.0832,-0.1177 0.0364,-0.0362 0.0797,-0.065 0.1273,-0.0846 0.0477,-0.0196 0.0988,-0.0297 0.1504,-0.0297 0.0516,0 0.1026,0.0101 0.1503,0.0297 0.0476,0.0196 0.0909,0.0484 0.1273,0.0846 0.0685,0.0693 0.1075,0.1621 0.1089,0.2592 0.0036,0.0778 -0.0171,0.1549 -0.0594,0.2206 -0.0423,0.0658 -0.104,0.1169 -0.1768,0.1465 -0.0727,0.0295 -0.1529,0.0361 -0.2295,0.0187 -0.0766,-0.0174 -0.146,-0.0579 -0.1985,-0.1159 z m 0,0.9611 h 0.5336 v 3.963 h -0.5336 z"
     id="path32"
     inkscape:connector-curvature="0"
     style="fill:#09567e" />
  <path
     d="m 79.488585,42.829291 c 0.1459,0.1492 0.2583,0.3274 0.3296,0.5228 0.0713,0.1955 0.1,0.4037 0.0842,0.611 v 2.408 h -0.5227 v -0.6047 c -0.1239,0.2054 -0.3056,0.3705 -0.5227,0.4752 -0.2601,0.1159 -0.5423,0.1749 -0.8275,0.1727 -0.3905,0.0258 -0.7772,-0.0892 -1.0888,-0.3239 -0.1159,-0.1013 -0.2087,-0.226 -0.2723,-0.3656 -0.0635,-0.1396 -0.0964,-0.2911 -0.0964,-0.4443 0,-0.1532 0.0329,-0.3046 0.0964,-0.4443 0.0636,-0.1396 0.1564,-0.2642 0.2723,-0.3656 0.3347,-0.2368 0.7451,-0.3444 1.1541,-0.3023 h 1.2849 v -0.2376 c 0.011,-0.1404 -0.0086,-0.2816 -0.0575,-0.4139 -0.0488,-0.1323 -0.1258,-0.2526 -0.2256,-0.3528 -0.2308,-0.1917 -0.527,-0.2883 -0.8275,-0.2699 -0.2445,8e-4 -0.4872,0.0409 -0.7187,0.1187 -0.2199,0.0766 -0.4231,0.1938 -0.5989,0.3456 l -0.2395,-0.3996 c 0.2143,-0.171 0.4577,-0.3026 0.7186,-0.3887 0.2855,-0.0895 0.5827,-0.1368 0.882,-0.1404 0.4295,-0.0234 0.8512,0.1199 1.176,0.3996 z m -0.5989,2.9587 c 0.2214,-0.1353 0.3902,-0.3407 0.4791,-0.5831 v -0.6479 h -1.2304 c -0.6751,0 -1.0126,0.2376 -1.0126,0.6911 -0.0044,0.1044 0.0171,0.2082 0.0627,0.3023 0.0455,0.0942 0.1137,0.1758 0.1986,0.2376 0.215,0.1426 0.4714,0.2109 0.7295,0.1944 0.272,0.0182 0.5427,-0.0499 0.7731,-0.1944 z"
     id="path34"
     inkscape:connector-curvature="0"
     style="fill:#09567e" />
  <path
     d="m 84.998385,42.472591 v 3.4231 c 0.0227,0.265 -0.009,0.5317 -0.0932,0.7841 -0.0842,0.2525 -0.2192,0.4853 -0.3968,0.6845 -0.2011,0.1718 -0.4346,0.3023 -0.6869,0.3839 -0.2524,0.0815 -0.5185,0.1126 -0.7831,0.0912 -0.3692,0.017 -0.7385,-0.0343 -1.0888,-0.1511 -0.2935,-0.0903 -0.5644,-0.2412 -0.7949,-0.4428 l 0.2613,-0.3995 c 0.2049,0.1728 0.4415,0.3048 0.6969,0.3887 0.2729,0.0947 0.5602,0.1422 0.8493,0.1404 0.1955,0.0162 0.3923,-0.0059 0.5791,-0.0652 0.1869,-0.0593 0.3601,-0.1546 0.5098,-0.2803 0.1308,-0.1463 0.2302,-0.3175 0.292,-0.5032 0.0617,-0.1857 0.0847,-0.3819 0.0673,-0.5767 v -0.4859 c -0.1664,0.2389 -0.3912,0.4321 -0.6533,0.5615 -0.2758,0.1291 -0.5771,0.1955 -0.882,0.1944 -0.352,0.0031 -0.6994,-0.0784 -1.0127,-0.2376 -0.2956,-0.1564 -0.5408,-0.3922 -0.7077,-0.6803 -0.1739,-0.2986 -0.2642,-0.6378 -0.2613,-0.9826 -0.0011,-0.3378 0.0891,-0.6697 0.2613,-0.9611 0.1676,-0.2849 0.4129,-0.517 0.7077,-0.6695 0.3108,-0.1658 0.66,-0.2477 1.0127,-0.2376 0.3089,-0.0063 0.615,0.0603 0.8928,0.1944 0.2656,0.1342 0.4909,0.3353 0.6534,0.5831 v -0.7451 z m -1.2631,3.0992 c 0.2253,-0.116 0.4138,-0.2917 0.5444,-0.5075 0.123,-0.2275 0.1873,-0.4816 0.1873,-0.7397 0,-0.2581 -0.0643,-0.5122 -0.1873,-0.7397 -0.1294,-0.2131 -0.3135,-0.3882 -0.5335,-0.5076 -0.2406,-0.1172 -0.5051,-0.1781 -0.7731,-0.1781 -0.2681,0 -0.5325,0.0609 -0.7731,0.1781 -0.219,0.1169 -0.4002,0.2929 -0.5227,0.5076 -0.1288,0.2256 -0.1965,0.4804 -0.1965,0.7397 0,0.2592 0.0677,0.5141 0.1965,0.7397 0.1189,0.2173 0.301,0.3942 0.5227,0.5075 0.2371,0.1221 0.5004,0.1858 0.7676,0.1858 0.2672,0 0.5305,-0.0637 0.7677,-0.1858 z"
     id="path36"
     inkscape:connector-curvature="0"
     style="fill:#09567e" />
  <path
     d="m 89.669785,42.872391 c 0.1549,0.1661 0.2736,0.3621 0.3486,0.5758 0.0749,0.2137 0.1045,0.4405 0.0869,0.666 v 2.2569 h -0.5226 v -2.1597 c 0.0221,-0.3368 -0.0871,-0.6692 -0.3049,-0.9286 -0.1178,-0.1097 -0.2565,-0.1949 -0.4079,-0.2506 -0.1515,-0.0556 -0.3127,-0.0806 -0.4741,-0.0734 -0.1844,-0.0101 -0.3688,0.0183 -0.5414,0.0834 -0.1726,0.0651 -0.3294,0.1655 -0.4604,0.2946 -0.2453,0.253 -0.3853,0.5885 -0.392,0.9394 v 2.0409 h -0.5335 v -3.8874 h 0.5335 v 0.7667 c 0.1403,-0.2384 0.3487,-0.43 0.5989,-0.5507 0.2771,-0.1374 0.5831,-0.2078 0.8929,-0.2052 0.2152,-0.0096 0.4301,0.0237 0.6321,0.0979 0.202,0.0742 0.3869,0.1877 0.5439,0.334 z"
     id="path38"
     inkscape:connector-curvature="0"
     style="fill:#09567e" />
  <path
     d="m 92.152485,46.154991 c -0.3026,-0.1655 -0.5518,-0.4126 -0.7186,-0.7127 -0.1792,-0.3083 -0.2696,-0.6594 -0.2614,-1.0151 -0.0163,-0.3771 0.0742,-0.7512 0.2614,-1.0798 0.1703,-0.2947 0.4188,-0.5375 0.7186,-0.7019 0.3151,-0.1664 0.6666,-0.2534 1.0235,-0.2534 0.357,0 0.7085,0.087 1.0236,0.2534 0.2997,0.1644 0.5483,0.4072 0.7186,0.7019 0.1839,0.3295 0.2707,0.7037 0.2504,1.0798 0.0105,0.3546 -0.0761,0.7053 -0.2504,1.0151 -0.1669,0.3001 -0.416,0.5472 -0.7186,0.7127 -0.3151,0.1664 -0.6666,0.2534 -1.0236,0.2534 -0.3569,0 -0.7084,-0.087 -1.0235,-0.2534 z m 1.7748,-0.3996 c 0.221,-0.1288 0.4019,-0.3157 0.5227,-0.5399 0.1221,-0.247 0.1856,-0.5185 0.1856,-0.7937 0,-0.2751 -0.0635,-0.5466 -0.1856,-0.7936 -0.1181,-0.2235 -0.2998,-0.4075 -0.5227,-0.5292 -0.2291,-0.1284 -0.4881,-0.1954 -0.7513,-0.1943 -0.2638,-0.006 -0.524,0.0614 -0.7513,0.1943 -0.2228,0.1217 -0.4046,0.3057 -0.5226,0.5292 -0.1297,0.2466 -0.1969,0.5209 -0.196,0.799 -9e-4,0.2748 0.0664,0.5455 0.196,0.7883 0.1208,0.2242 0.3016,0.4111 0.5226,0.5399 0.2295,0.1277 0.4882,0.1948 0.7513,0.1948 0.2632,0 0.5219,-0.0671 0.7513,-0.1948 z"
     id="path40"
     inkscape:connector-curvature="0"
     style="fill:#09567e" />
  <path
     d="m 96.398585,46.273891 c -0.2512,-0.0644 -0.4853,-0.1823 -0.686,-0.3455 l 0.2396,-0.4104 c 0.1852,0.1422 0.3957,0.2484 0.6206,0.3132 0.2486,0.0858 0.5099,0.1296 0.7731,0.1296 0.2763,0.0201 0.5525,-0.0399 0.7949,-0.1728 0.0826,-0.0459 0.1507,-0.1135 0.1969,-0.1955 0.0461,-0.082 0.0684,-0.175 0.0644,-0.2688 -5e-4,-0.0607 -0.0134,-0.1206 -0.0377,-0.1762 -0.0243,-0.0557 -0.0596,-0.1059 -0.1038,-0.1478 -0.1083,-0.0875 -0.2347,-0.1502 -0.3703,-0.1836 -0.1885,-0.0561 -0.3816,-0.0958 -0.577,-0.1187 -0.2614,0 -0.5118,-0.108 -0.7731,-0.1836 -0.1891,-0.0637 -0.358,-0.1754 -0.49,-0.324 -0.1487,-0.174 -0.2229,-0.3987 -0.2069,-0.6263 -0.0028,-0.1567 0.0335,-0.3116 0.1057,-0.4511 0.0722,-0.1394 0.178,-0.2589 0.3081,-0.348 0.32,-0.2167 0.7015,-0.3265 1.0888,-0.3131 0.2572,4e-4 0.5133,0.033 0.7622,0.0972 0.2197,0.0525 0.4293,0.1401 0.6207,0.2591 l -0.2287,0.4212 c -0.3427,-0.2205 -0.746,-0.3299 -1.1542,-0.3132 -0.2692,-0.0191 -0.5381,0.041 -0.7731,0.1728 -0.0797,0.0482 -0.145,0.1166 -0.1891,0.1983 -0.044,0.0816 -0.0652,0.1735 -0.0613,0.266 -0.0056,0.0662 0.0042,0.1328 0.0288,0.1946 0.0245,0.0618 0.0631,0.1172 0.1127,0.1618 0.1018,0.0932 0.2252,0.16 0.3594,0.1943 0.1972,0.0535 0.3971,0.0968 0.5988,0.1296 0.2579,0.0446 0.5125,0.1059 0.7622,0.1836 0.1839,0.057 0.3492,0.1613 0.4791,0.3024 0.0957,0.0774 0.1734,0.1744 0.2279,0.2844 0.0545,0.1099 0.0845,0.2302 0.0879,0.3527 0.0055,0.161 -0.0319,0.3206 -0.1084,0.4628 -0.0764,0.1421 -0.1893,0.2618 -0.3271,0.347 -0.3535,0.2226 -0.769,0.3285 -1.1869,0.3024 -0.3282,-0.01 -0.6523,-0.0758 -0.9582,-0.1944 z"
     id="path42"
     inkscape:connector-curvature="0"
     style="fill:#09567e" />
  <path
     d="m 102.02828,46.133391 c -0.106,0.0949 -0.233,0.165 -0.37,0.2051 -0.159,0.064 -0.329,0.097 -0.501,0.0972 -0.148,0.0089 -0.297,-0.0125 -0.436,-0.0628 -0.14,-0.0503 -0.268,-0.1284 -0.376,-0.2296 -0.108,-0.1012 -0.194,-0.2232 -0.253,-0.3586 -0.059,-0.1355 -0.089,-0.2814 -0.089,-0.4288 v -2.4405 h -0.707695 v -0.4427 h 0.772695 v -0.8531 h 0.534 v 0.8531 h 1.198 v 0.4427 h -1.198 v 2.3325 c -0.008,0.0953 0.003,0.1912 0.033,0.2821 0.03,0.0909 0.078,0.1749 0.141,0.247 0.065,0.0657 0.143,0.1162 0.23,0.148 0.086,0.0317 0.179,0.0439 0.271,0.0356 0.112,0.0049 0.223,-0.0135 0.327,-0.054 0.099,-0.0293 0.191,-0.0769 0.272,-0.1404 z"
     id="path44"
     inkscape:connector-curvature="0"
     style="fill:#09567e" />
  <path
     d="m 102.98728,41.511591 c -0.036,-0.0356 -0.063,-0.0778 -0.082,-0.1241 -0.019,-0.0464 -0.028,-0.0959 -0.027,-0.1458 -0.002,-0.0485 0.007,-0.0967 0.025,-0.1415 0.019,-0.0447 0.048,-0.0849 0.084,-0.1177 0.036,-0.0362 0.079,-0.065 0.127,-0.0846 0.047,-0.0196 0.099,-0.0297 0.15,-0.0297 0.052,0 0.103,0.0101 0.15,0.0297 0.048,0.0196 0.091,0.0484 0.128,0.0846 0.036,0.0328 0.064,0.073 0.083,0.1177 0.019,0.0448 0.028,0.093 0.026,0.1415 0,0.0499 -0.009,0.0994 -0.028,0.1458 -0.018,0.0463 -0.046,0.0885 -0.081,0.1241 -0.037,0.0363 -0.08,0.065 -0.128,0.0846 -0.047,0.0197 -0.098,0.0298 -0.15,0.0298 -0.051,0 -0.103,-0.0101 -0.15,-0.0298 -0.048,-0.0196 -0.091,-0.0483 -0.127,-0.0846 z m 0,0.9611 h 0.533 v 3.963 h -0.523 z"
     id="path46"
     inkscape:connector-curvature="0"
     style="fill:#09567e" />
  <path
     d="m 105.58928,46.154791 c -0.3,-0.1644 -0.549,-0.4072 -0.719,-0.7019 -0.171,-0.3152 -0.261,-0.6677 -0.261,-1.0259 0,-0.3581 0.09,-0.7107 0.261,-1.0258 0.173,-0.2925 0.421,-0.5346 0.719,-0.7019 0.334,-0.1791 0.709,-0.2684 1.089,-0.2592 0.313,-0.0038 0.623,0.0665 0.903,0.2052 0.269,0.1209 0.493,0.3207 0.643,0.5723 l -0.403,0.2592 c -0.125,-0.1818 -0.293,-0.3301 -0.49,-0.432 -0.204,-0.0948 -0.428,-0.1428 -0.653,-0.1404 -0.268,-0.0062 -0.531,0.0611 -0.763,0.1944 -0.228,0.1184 -0.414,0.303 -0.533,0.5291 -0.13,0.2467 -0.197,0.5209 -0.196,0.7991 -10e-4,0.2747 0.066,0.5455 0.196,0.7883 0.119,0.2293 0.305,0.4176 0.533,0.5399 0.234,0.1285 0.496,0.1954 0.763,0.1944 0.226,-0.0013 0.449,-0.053 0.653,-0.1512 0.201,-0.0911 0.371,-0.2372 0.49,-0.4211 l 0.403,0.2591 c -0.156,0.253 -0.383,0.4555 -0.653,0.5831 -0.307,0.1385 -0.641,0.2047 -0.977,0.1934 -0.336,-0.0112 -0.666,-0.0996 -0.962,-0.2581 z"
     id="path48"
     inkscape:connector-curvature="0"
     style="fill:#09567e" />
  <path
     d="m 109.35628,46.273891 c -0.25,-0.0665 -0.484,-0.1842 -0.686,-0.3455 l 0.24,-0.4104 c 0.185,0.1422 0.396,0.2484 0.621,0.3132 0.248,0.0858 0.509,0.1296 0.773,0.1296 0.276,0.0201 0.552,-0.0399 0.794,-0.1728 0.083,-0.0459 0.151,-0.1135 0.197,-0.1955 0.047,-0.082 0.069,-0.175 0.065,-0.2688 0.002,-0.0611 -0.01,-0.1218 -0.034,-0.1779 -0.025,-0.056 -0.061,-0.1059 -0.108,-0.1461 -0.105,-0.0861 -0.227,-0.1487 -0.359,-0.1836 -0.189,-0.0561 -0.382,-0.0958 -0.577,-0.1187 -0.261,0 -0.512,-0.108 -0.762,-0.1836 -0.195,-0.0595 -0.368,-0.1717 -0.501,-0.324 -0.149,-0.174 -0.223,-0.3987 -0.207,-0.6263 0,-0.1562 0.037,-0.3102 0.109,-0.4491 0.072,-0.139 0.177,-0.259 0.305,-0.35 0.32,-0.2167 0.701,-0.3265 1.089,-0.3131 0.257,4e-4 0.513,0.033 0.762,0.0972 0.219,0.0525 0.429,0.1401 0.62,0.2591 l -0.228,0.4212 c -0.343,-0.2205 -0.746,-0.3299 -1.154,-0.3132 -0.27,-0.0191 -0.539,0.041 -0.774,0.1728 -0.078,0.0498 -0.142,0.1186 -0.186,0.1998 -0.044,0.0813 -0.066,0.1724 -0.064,0.2645 -0.006,0.0662 0.004,0.1328 0.029,0.1946 0.024,0.0618 0.063,0.1172 0.113,0.1618 0.101,0.0932 0.225,0.16 0.359,0.1943 0.197,0.0535 0.397,0.0968 0.599,0.1296 0.258,0.0446 0.512,0.1059 0.762,0.1836 0.184,0.057 0.349,0.1613 0.479,0.3024 0.143,0.1646 0.217,0.377 0.207,0.5939 0.005,0.161 -0.032,0.3206 -0.108,0.4628 -0.077,0.1421 -0.19,0.2618 -0.328,0.347 -0.353,0.2226 -0.769,0.3285 -1.186,0.3024 -0.293,-0.0066 -0.583,-0.0576 -0.861,-0.1512 z"
     id="path50"
     inkscape:connector-curvature="0"
     style="fill:#09567e" />
  <path
     d="m 111.71928,32.397491 -0.196,-0.4319 -1.252,-2.8076 -1.253,-2.7644 -1.252,-2.7644 -0.076,-0.2699 1.209,-2.4729 1.328,-2.7643 1.339,-2.7644 0.196,-0.3888 c 0.195,-0.4113 0.233,-0.8786 0.107,-1.3154 -0.126,-0.4368 -0.408,-0.8134 -0.793,-1.0602 l -0.196,-0.108 c -0.447,-0.2112 -0.961,-0.2378 -1.429,-0.0738 -0.467,0.164 -0.85,0.505 -1.064,0.9485 l -0.98,1.9977 -1.339,2.7644 -1.34,2.7643 -0.794,1.6522 c -0.168,0.3341 -0.225,0.7118 -0.164,1.0798 0.031,0.1593 0.078,0.315 0.142,0.4644 l 1.089,2.3 1.154,2.7752 1.263,2.7644 0.882,1.9545 c 0.151,0.3294 0.393,0.61 0.697,0.8099 0.265,0.1624 0.567,0.2581 0.878,0.2788 0.311,0.0207 0.623,-0.0342 0.907,-0.16 l 0.229,-0.1188 c 0.371,-0.2375 0.646,-0.5975 0.776,-1.0164 0.129,-0.4189 0.105,-0.8698 -0.068,-1.2729 z"
     id="path52"
     inkscape:connector-curvature="0"
     style="fill:#f8b138" />
  <path
     d="m 102.24528,22.538891 -0.805,-1.6522 -1.372,-2.7644 -1.328795,-2.7643 -0.98,-1.9978 c -0.1467,-0.3219 -0.384,-0.5951 -0.6833,-0.7866 -0.2994,-0.1916 -0.6482,-0.2934 -1.0044,-0.2932 -0.2783,-0.0032 -0.5537,0.0559 -0.8058,0.1728 l -0.196,0.108 c -0.3882,0.2436 -0.6727,0.6202 -0.7992,1.0582 -0.1264,0.4381 -0.0862,0.9069 0.1132,1.3174 l 0.196,0.3888 2.6677,5.5287 1.1978,2.4837 -0.1307,0.2699 -1.2522,2.7644 -1.2522,2.786 -1.2521,2.7644 -0.196,0.4319 c -0.1018,0.2218 -0.1583,0.4614 -0.1663,0.7049 -0.0079,0.2436 0.0328,0.4863 0.1198,0.7141 0.0871,0.2279 0.2187,0.4364 0.3874,0.6136 0.1687,0.1771 0.3711,0.3194 0.5955,0.4187 0.2378,0.1122 0.4989,0.1677 0.7622,0.162 0.3599,0.0043 0.7134,-0.0955 1.017,-0.2873 0.3036,-0.1918 0.5443,-0.4672 0.6925,-0.7926 l 0.8929,-1.9545 1.252,-2.7752 1.240995,-2.7536 1.089,-2.3 c 0.113,-0.2459 0.172,-0.5128 0.172,-0.7829 0,-0.2701 -0.059,-0.5371 -0.172,-0.7829 z"
     id="path54"
     inkscape:connector-curvature="0"
     style="fill:#f8b138" />
  <path
     d="m 26.820785,7.8747111 c -0.6198,-1.71648 -1.6958,-3.23498 -3.1142,-4.39496 -2.5624,-2.15968 -6.0939,-3.23952005 -10.5946,-3.23952005 H -0.10671545 V 35.281091 H 3.6280746 v -11.0576 h 9.4839104 c 4.5079,0 8.0395,-1.0582 10.5946,-3.1747 0.1416,-0.1188 0.2831,-0.2376 0.4138,-0.3672 1.1462,-1.0759 2.045,-2.3843 2.635,-3.836 0.5901,-1.4517 0.8575,-3.0125 0.784,-4.5759 0.0179,-1.4952 -0.2252,-2.9820999 -0.7186,-4.3949799 z m -5.7928,10.5608799 c -1.8401,1.5225 -4.4207,2.084 -7.916,2.084 H 3.7260646 L 3.6280746,3.9656811 h 9.3859104 c 3.4953,0 5.8799,0.38875 7.7309,1.90052 0.9827,0.75545 1.7747,1.72731 2.3133,2.8387 0.5386,1.11139 0.8091,2.3317899 0.79,3.5647899 0.0642,1.1768 -0.1586,2.3517 -0.6495,3.4251 -0.4909,1.0733 -1.2355,2.0135 -2.1707,2.7408 z"
     id="path56"
     inkscape:connector-curvature="0"
     style="fill:#09567e" />
  <path
     d="m 92.838285,15.357891 h -3.7566 c 0.1108,0.787 0.1617,1.5811 0.1525,2.3756 v 0.3888 c -0.0165,0.9282 -0.1149,1.8532 -0.294,2.7644 -0.3,1.3939 -0.8297,2.7293 -1.568,3.9522 -0.3204,0.5396 -0.6846,1.0524 -1.0889,1.5334 -0.9419,1.1106 -2.0689,2.0529 -3.3319,2.786 h 5.8472 c 0.6902,-0.7705 1.3029,-1.6059 1.8293,-2.4945 0.0572,-0.0862 0.1082,-0.1764 0.1524,-0.2699 0.985,-1.7055 1.6456,-3.5758 1.9491,-5.518 0.1558,-0.9135 0.2359,-1.838 0.2395,-2.7644 v -0.3888 c 0.0052,-0.7901 -0.0384,-1.5799 -0.1306,-2.3648 z m 0,0 c -0.1094,-0.9348 -0.2951,-1.8593 -0.5553,-2.7644 -0.28,-0.9481 -0.6444,-1.8695 -1.0889,-2.7535999 -0.1742,-0.3671 -0.3702,-0.71268 -0.5771,-1.07983 -1.023,-1.71367 -2.3642,-3.21961 -3.9526,-4.43814 -1.5843,-1.21365 -3.3668,-2.14869 -5.27,-2.76439 -2.2805,-0.72410005 -4.6614,-1.08849005 -7.0558,-1.07984005 h -12.4892 V 34.989391 h 12.4892 c 1.2832,0 2.5645,-0.0975 3.8327,-0.2916 2.0601,-0.3098 4.0543,-0.9556 5.9017,-1.9113 1.7935,-0.9053 3.4001,-2.1359 4.7365,-3.6282 0.6901,-0.7667 1.3028,-1.5985 1.8293,-2.4837 0,-0.0972 0.1089,-0.1835 0.1524,-0.2807 0.5097,-0.8776 0.9292,-1.8037 1.2522,-2.7644 0.3152,-0.8945 0.5449,-1.8165 0.686,-2.7536 0.1558,-0.9135 0.2359,-1.838 0.2395,-2.7644 v -0.3888 c 0.0052,-0.7901 -0.0384,-1.5799 -0.1306,-2.3648 z m -3.8981,5.5288 c -0.1943,0.9504 -0.5013,1.8747 -0.9147,2.7536 -0.1961,0.4213 -0.4141,0.8322 -0.6533,1.231 -0.3204,0.5396 -0.6846,1.0524 -1.0889,1.5334 -0.9422,1.1015 -2.0694,2.0331 -3.3319,2.7536 l -0.871,0.4859 c -2.4685,1.2034 -5.2002,1.7786 -7.9487,1.6737 h -8.5476 V 4.2139411 h 8.5476 c 0.7622,0 1.5026,0 2.1777,0.09718 2.0425,0.13368 4.0377,0.66963 5.8689,1.57657 0.6745,0.35455 1.3255,0.75129 1.9491,1.18782 1.092,0.7474 2.0429,1.67946 2.8093,2.75358 0.1633,0.2483999 0.3266,0.4966999 0.4899,0.7666999 0.8717,1.4605 1.4383,3.08 1.666,4.7621 0.0996,0.7844 0.1505,1.5742 0.1524,2.3648 v 0.3996 c -0.0238,0.9288 -0.1294,1.8538 -0.3157,2.7644 z m -0.9147,2.7536 c -0.1961,0.4213 -0.4141,0.8322 -0.6533,1.231 -0.3204,0.5396 -0.6846,1.0524 -1.0889,1.5334 -0.9422,1.1015 -2.0694,2.0331 -3.3319,2.7536 h 5.8472 c 0.6902,-0.7705 1.3029,-1.6059 1.8293,-2.4945 0.0572,-0.0862 0.1082,-0.1764 0.1524,-0.2699 0.5132,-0.8773 0.9363,-1.8034 1.2631,-2.7644 z"
     id="path58"
     inkscape:connector-curvature="0"
     style="fill:#f8b138" />
  <path
     d="m 59.911585,17.765891 v 13.3361 c -0.1851,0.1511 -0.3702,0.3239 -0.5554,0.4643 -1.584,1.2419 -3.375,2.1994 -5.2918,2.8292 -2.2845,0.7765 -4.6844,1.1671 -7.0994,1.1554 -3.3173,0.0445 -6.5918,-0.7469 -9.5166,-2.3 -2.3599,-1.2677 -4.389,-3.0639 -5.9258,-5.246 -1.5368,-2.1821 -2.5389,-4.6897 -2.9266,-7.3234 -0.1433,-0.9581 -0.2161,-1.9253 -0.2178,-2.894 -0.0422,-3.2093 0.7931,-6.37 2.4173,-9.1462099 l 0.49,-0.77749 c 1.5651,-2.32932 3.6858,-4.23953 6.1738,-5.56118 2.941,-1.56203005 6.2353,-2.35370405 9.5711,-2.30005505 2.5275,-0.024624 5.0378,0.414705 7.4042,1.29580505 0.942,0.34915 1.8466,0.79046 2.7004,1.31741 l -1.9817,3.01275 c -2.4726,-1.28246 -5.2238,-1.94603 -8.014,-1.93291 -2.6473,-0.10068 -5.2751,0.48753 -7.6221,1.70615 -2.2548,1.1326 -4.1418,2.87299 -5.4442,5.0212299 -1.3252,2.2214 -2.0071,4.7622 -1.9709,7.3429 -0.0322,2.592 0.6533,5.143 1.9817,7.3753 1.2319,2.0965 3.0412,3.801 5.2157,4.9133 2.4031,1.2433 5.0868,1.8567 7.7962,1.7818 3.2177,0.1136 6.389,-0.7861 9.0593,-2.5701 v -7.7964 h -7.426 v -3.7039 z"
     id="path60"
     inkscape:connector-curvature="0"
     style="fill:#09567e" />
  <path
     d="m 65.584085,9.8398911 h -3.7347 v 2.7642999 h 3.7347 z"
     id="path62"
     inkscape:connector-curvature="0"
     style="fill:#ffcc82" />
  <path
     d="m 92.282685,12.593391 h -3.8981 c -0.2631,-0.6928 -0.5874,-1.3613 -0.9691,-1.9977 -0.1633,-0.2699 -0.3266,-0.5183 -0.49,-0.7557999 h 4.2792 c 0.4453,0.8823999 0.8062,1.8042999 1.078,2.7534999 z"
     id="path64"
     inkscape:connector-curvature="0"
     style="fill:#ffcc82" />
  <path
     d="m 96.071785,12.312591 c 0.3571,-2e-4 0.7074,0.0969 1.0126,0.2807 h -2.0143 l 0.1959,-0.108 c 0.2525,-0.1158 0.5277,-0.1749 0.8058,-0.1727 z"
     id="path66"
     inkscape:connector-curvature="0"
     style="fill:#ffcc82" />
  <path
     d="m 111.02128,12.593491 h -2.003 c 0.269,-0.1652 0.574,-0.2617 0.89,-0.2805 0.316,-0.0189 0.631,0.0404 0.917,0.1725 z"
     id="path68"
     inkscape:connector-curvature="0"
     style="fill:#ffcc82" />
  <path
     d="m 65.584085,12.593291 h -3.7347 v 2.7644 h 3.7347 z"
     id="path70"
     inkscape:connector-curvature="0"
     style="fill:#f9b953" />
  <path
     d="m 92.837885,15.357691 h -3.7565 c -0.1291,-0.9441 -0.3628,-1.8712 -0.6969,-2.7644 h 3.8981 c 0.2602,0.905 0.4459,1.8295 0.5553,2.7644 z"
     id="path72"
     inkscape:connector-curvature="0"
     style="fill:#f9b953" />
  <path
     d="m 98.739785,15.357691 h -4.1158 l -0.1851,-0.3888 c -0.2004,-0.4092 -0.2424,-0.8772 -0.118,-1.3151 0.1245,-0.4379 0.4067,-0.8153 0.793,-1.0605 h 2.0144 c 0.2959,0.1845 0.5306,0.4511 0.6751,0.7667 z"
     id="path74"
     inkscape:connector-curvature="0"
     style="fill:#f9b953" />
  <path
     d="m 111.70828,14.968891 -0.196,0.3888 h -4.148 l 0.98,-1.9977 c 0.152,-0.314 0.389,-0.5796 0.686,-0.7667 h 2.003 c 0.383,0.2484 0.662,0.6258 0.786,1.0624 0.124,0.4367 0.085,0.9031 -0.111,1.3132 z"
     id="path76"
     inkscape:connector-curvature="0"
     style="fill:#f9b953" />
  <path
     d="m 65.584085,15.357891 h -3.7347 v 2.7644 h 3.7347 z"
     id="path78"
     inkscape:connector-curvature="0"
     style="fill:#f8b138" />
  <path
     d="m 92.968985,17.733591 v 0.3887 h -3.7348 v -0.3887 c -0.0016,-0.7943 -0.0525,-1.5876 -0.1524,-2.3757 h 3.7565 c 0.0873,0.7889 0.1309,1.582 0.1307,2.3757 z"
     id="path80"
     inkscape:connector-curvature="0"
     style="fill:#f8b138" />
  <path
     d="m 100.06828,18.122291 h -4.148195 l -1.3393,-2.7644 h 4.1594 z"
     id="path82"
     inkscape:connector-curvature="0"
     style="fill:#f8b138" />
  <path
     d="m 111.51228,15.357891 -1.34,2.7644 h -4.148 l 1.339,-2.7644 z"
     id="path84"
     inkscape:connector-curvature="0"
     style="fill:#f8b138" />
  <path
     d="m 65.584085,7.0756811 h -3.7347 v 2.76441 h 3.7347 z"
     id="path86"
     inkscape:connector-curvature="0"
     style="fill:#f8b138" />
  <path
     d="m 91.215585,9.8400911 h -4.2793 c -0.7508,-1.07561 -1.687,-2.01141 -2.7657,-2.76441 h 5.2919 c 0.4337,0.53929 0.8268,1.10955 1.1759,1.70615 0.2069,0.34555 0.4029,0.71266 0.5772,1.05826 z"
     id="path88"
     inkscape:connector-curvature="0"
     style="fill:#f8b138" />
  <path
     d="m 65.584085,18.122091 h -3.7347 v 2.7644 h 3.7347 z"
     id="path90"
     inkscape:connector-curvature="0"
     style="fill:#fac77a" />
  <path
     d="m 92.969085,18.122091 c -0.009,0.9261 -0.0891,1.8503 -0.2395,2.7644 h -3.8002 c 0.1827,-0.9109 0.2848,-1.8359 0.3049,-2.7644 z"
     id="path92"
     inkscape:connector-curvature="0"
     style="fill:#fac77a" />
  <path
     d="m 101.40728,20.886491 h -4.148295 l -1.3393,-2.7644 h 4.148595 z"
     id="path94"
     inkscape:connector-curvature="0"
     style="fill:#fac77a" />
  <path
     d="m 110.17328,18.122091 -1.329,2.7644 h -4.148 l 1.328,-2.7644 z"
     id="path96"
     inkscape:connector-curvature="0"
     style="fill:#fac77a" />
  <path
     d="m 65.584085,4.3110311 h -3.7347 v 2.7644 h 3.7347 z"
     id="path98"
     inkscape:connector-curvature="0"
     style="fill:#fac77a" />
  <path
     d="m 89.463085,7.0753711 h -5.2918 c -0.6197,-0.43925 -1.2712,-0.83266 -1.9491,-1.17703 -1.8303,-0.90939 -3.826,-1.44548 -5.8689,-1.57656 h 10.3006 c 1.0512,0.79507 1.9953,1.72047 2.8092,2.75359 z"
     id="path100"
     inkscape:connector-curvature="0"
     style="fill:#fac77a" />
  <path
     d="m 65.584085,20.886691 h -3.7347 v 2.7644 h 3.7347 z"
     id="path102"
     inkscape:connector-curvature="0"
     style="fill:#f9b953" />
  <path
     d="m 92.729185,20.886691 c -0.1514,0.9352 -0.3808,1.8562 -0.686,2.7536 h -4.0288 c 0.4134,-0.8788 0.7204,-1.8031 0.9146,-2.7536 z"
     id="path104"
     inkscape:connector-curvature="0"
     style="fill:#f9b953" />
  <path
     d="m 102.36628,23.640291 h -4.028795 l 0.1198,-0.2699 -1.1978,-2.4837 h 4.148795 l 0.838,1.6522 c 0.152,0.3465 0.194,0.7307 0.12,1.1014 z"
     id="path106"
     inkscape:connector-curvature="0"
     style="fill:#f9b953" />
  <path
     d="m 107.69028,23.370191 0.131,0.27 h -4.029 c -0.051,-0.368 0.006,-0.7428 0.163,-1.0798 l 0.806,-1.6522 h 4.149 z"
     id="path108"
     inkscape:connector-curvature="0"
     style="fill:#f9b953" />
  <path
     d="m 86.664385,4.3220611 h -10.3006 c -0.7186,-0.06479 -1.4699,-0.08638 -2.1777,-0.08638 h -8.602 v 0.08638 h -3.7347 v -2.77519 h 19.545 c 1.9039,0.61901 3.6865,1.55772 5.27,2.77519 z"
     id="path110"
     inkscape:connector-curvature="0"
     style="fill:#f9b953" />
  <path
     d="m 65.584085,23.640091 h -3.7347 v 2.7644 h 3.7347 z"
     id="path112"
     inkscape:connector-curvature="0"
     style="fill:#f8b138" />
  <path
     d="m 92.042985,23.640091 c -0.3195,0.9604 -0.7353,1.8865 -1.2413,2.7644 h -4.5188 c 0.4043,-0.481 0.7685,-0.9938 1.0889,-1.5333 0.2392,-0.3989 0.4572,-0.8097 0.6533,-1.2311 z"
     id="path114"
     inkscape:connector-curvature="0"
     style="fill:#f8b138" />
  <path
     d="m 102.36628,23.640091 c -0.021,0.1617 -0.069,0.3187 -0.142,0.4644 l -1.089,2.3 h -4.061295 l 1.263,-2.7644 z"
     id="path116"
     inkscape:connector-curvature="0"
     style="fill:#f8b138" />
  <path
     d="m 109.01828,26.404491 h -4.105 l -1.088,-2.3 c -0.069,-0.1476 -0.116,-0.3039 -0.142,-0.4644 h 4.04 z"
     id="path118"
     inkscape:connector-curvature="0"
     style="fill:#f8b138" />
  <path
     d="m 65.584085,26.404791 h -3.7347 v 2.7644 h 3.7347 z"
     id="path120"
     inkscape:connector-curvature="0"
     style="fill:#f9b953" />
  <path
     d="m 90.791685,26.404891 c -0.0443,0.0934 -0.0952,0.1837 -0.1525,0.2699 -0.5308,0.885 -1.1471,1.7168 -1.8401,2.4836 h -5.8472 c 1.2613,-0.7265 2.3881,-1.6614 3.3319,-2.7643 z"
     id="path122"
     inkscape:connector-curvature="0"
     style="fill:#f9b953" />
  <path
     d="m 101.17928,26.404791 -1.251995,2.7644 h -4.1053 l 1.2522,-2.7644 z"
     id="path124"
     inkscape:connector-curvature="0"
     style="fill:#f9b953" />
  <path
     d="m 110.27128,29.169191 h -4.105 l -1.252,-2.7644 h 4.105 z"
     id="path126"
     inkscape:connector-curvature="0"
     style="fill:#f9b953" />
  <path
     d="m 88.798785,29.158191 c -0.963,1.0585 -2.0611,1.9878 -3.2666,2.7644 h -23.6936 v -2.7644 h 3.7348 v 2.1597 h 8.5475 c 2.7447,0.116 5.4757,-0.4442 7.9487,-1.6306 l 0.8711,-0.4859 z"
     id="path128"
     inkscape:connector-curvature="0"
     style="fill:#ffcc82" />
  <path
     d="m 99.926285,29.168991 -1.2522,2.7643 h -4.105 l 1.2522,-2.7643 z"
     id="path130"
     inkscape:connector-curvature="0"
     style="fill:#ffcc82" />
  <path
     d="m 111.52328,31.933291 h -4.105 l -1.253,-2.7643 h 4.105 z"
     id="path132"
     inkscape:connector-curvature="0"
     style="fill:#ffcc82" />
  <path
     d="m 81.394385,1.5467911 h -19.545 V 0.46695105 h 12.4892 c 2.3944,-0.00865 4.7753,0.35574 7.0558,1.07984005 z"
     id="path134"
     inkscape:connector-curvature="0"
     style="fill:#fac77a" />
  <path
     d="m 61.849485,31.933591 h 23.7153 c -0.4682,0.3024 -0.969,0.5831 -1.4808,0.8531 -1.8525,0.9526 -3.8498,1.5982 -5.9125,1.9113 h -16.3329 z"
     id="path136"
     inkscape:connector-curvature="0"
     style="fill:#f9b953" />
  <path
     d="m 98.674785,31.933591 -0.8929,1.9545 c -0.1476,0.3316 -0.3899,0.6132 -0.6969,0.8099 h -2.0144 c -0.3702,-0.241 -0.643,-0.6036 -0.7705,-1.0243 -0.1274,-0.4206 -0.1013,-0.8723 0.0737,-1.2758 l 0.196,-0.4319 z"
     id="path138"
     inkscape:connector-curvature="0"
     style="fill:#f9b953" />
  <path
     d="m 111.02228,34.697991 h -2.015 c -0.304,-0.1999 -0.545,-0.4806 -0.697,-0.8099 l -0.893,-1.9545 h 4.116 l 0.207,0.4319 c 0.182,0.4097 0.21,0.8705 0.078,1.2986 -0.132,0.4281 -0.415,0.795 -0.796,1.0339 z"
     id="path140"
     inkscape:connector-curvature="0"
     style="fill:#f9b953" />
</svg>
